Coordinates
version=1
nRows=32
nColumns=12
inDegrees=yes

Units are S.I. units (second, meters, Newtons, ...)
Angles are in degrees

endheader
time	SC_y	SC_z	SC_x	AC_y	AC_z	AC_x	GH_y	GH_z	GH_yy	EL_x	PS_y
       0.0              -20.25          16.05          67.57          69.15          5.985          6.838          123.6          40.07         -104.6          30.89          20.91
  0.008777              -20.25          16.05          67.56          69.15          5.982          6.839          123.6          40.07         -104.6          30.91          20.93
   0.01755              -20.25          16.05          67.56          69.14          5.979          6.839          123.6          40.07         -104.6          30.92          20.95
   0.02633              -20.25          16.05          67.56          69.14          5.975          6.839          123.6          40.07         -104.6          30.94          20.97
   0.03511              -20.25          16.05          67.56          69.14          5.971           6.84          123.6          40.07         -104.7          30.95          20.99
   0.04388              -20.25          16.05          67.55          69.13          5.966           6.84          123.6          40.07         -104.7          30.97          21.02
   0.05266              -20.25          16.04          67.55          69.13          5.962          6.841          123.6          40.07         -104.7          30.99          21.05
   0.06144              -20.25          16.04          67.54          69.13          5.957          6.841          123.7          40.08         -104.7          31.01          21.08
   0.07022              -20.25          16.04          67.54          69.12          5.952          6.842          123.7          40.08         -104.7          31.03          21.11
   0.07899              -20.25          16.04          67.53          69.12          5.946          6.842          123.7          40.08         -104.7          31.05          21.14
   0.08777              -20.25          16.04          67.53          69.12           5.94          6.843          123.7          40.08         -104.7          31.08          21.18
   0.09655              -20.26          16.03          67.52          69.11          5.933          6.843          123.7          40.08         -104.8          31.11          21.22
    0.1053              -20.26          16.03          67.52          69.11          5.926          6.844          123.7          40.08         -104.8          31.13          21.26
    0.1141              -20.26          16.03          67.51           69.1          5.919          6.845          123.7          40.09         -104.8          31.17           21.3
    0.1229              -20.26          16.02           67.5           69.1          5.911          6.845          123.7          40.09         -104.8           31.2          21.35
    0.1317              -20.26          16.02           67.5          69.09          5.902          6.846          123.7          40.09         -104.8          31.24          21.41
    0.1404              -20.26          16.01          67.49          69.08          5.892          6.847          123.7          40.09         -104.9          31.27          21.46
    0.1492              -20.26          16.01          67.48          69.07          5.881          6.848          123.7           40.1         -104.9          31.32          21.53
     0.158              -20.26          16.01          67.47          69.07           5.87          6.849          123.7           40.1         -104.9          31.36           21.6
    0.1668              -20.27           16.0          67.46          69.06          5.857           6.85          123.7           40.1         -105.0          31.42          21.67
    0.1755              -20.27          15.99          67.45          69.05          5.843          6.852          123.7          40.11         -105.0          31.47          21.75
    0.1843              -20.27          15.99          67.43          69.04          5.828          6.853          123.7          40.11         -105.0          31.53          21.85
    0.1931              -20.27          15.98          67.42          69.02          5.811          6.855          123.7          40.11         -105.1           31.6          21.95
    0.2019              -20.28          15.97           67.4          69.01          5.793          6.856          123.8          40.12         -105.1          31.68          22.06
    0.2106              -20.28          15.96          67.39           69.0          5.772          6.858          123.8          40.12         -105.2          31.76          22.18
    0.2194              -20.28          15.95          67.37          68.98          5.749          6.861          123.8          40.13         -105.2          31.86          22.32
    0.2282              -20.29          15.94          67.35          68.96          5.723          6.863          123.8          40.14         -105.3          31.96          22.48
     0.237              -20.29          15.93          67.32          68.94          5.693          6.866          123.8          40.15         -105.4          32.08          22.65
    0.2458              -20.29          15.92          67.29          68.92           5.66          6.869          123.8          40.15         -105.5          32.22          22.85
    0.2545               -20.3           15.9          67.26          68.89          5.623          6.872          123.9          40.16         -105.6          32.37          23.07
    0.2633              -20.31          15.88          67.22          68.86           5.58          6.876          123.9          40.18         -105.7          32.54          23.33
    0.2721              -20.31          15.86          67.18          68.83          5.531          6.881          123.9          40.19         -105.8          32.74          23.62
